<svg width="216" height="55" viewBox="0 0 216 55" fill="none" xmlns="http://www.w3.org/2000/svg">
<g clip-path="url(#clip0_10_991)">
<path d="M172.821 51.3733C184.744 51.3733 194.409 41.8038 194.409 30H172.821V51.3733Z" fill="#4EB3F8"/>
<path d="M172.821 8.62671C172.821 20.4305 182.487 30 194.409 30V8.62671H172.821Z" fill="#54B541"/>
<path d="M216 8.62671C204.078 8.62671 194.412 18.1962 194.412 30H216V8.62671Z" fill="#C7DC49"/>
<path d="M19.0999 33.7657L12.0352 21.6104H7.16386V33.7657H0V0.9646H14.5176C17.7652 0.9646 20.4788 1.94553 22.653 3.90738C24.8299 5.86923 25.917 8.31337 25.917 11.2398C25.917 13.297 25.3556 15.1553 24.2355 16.812C23.1153 18.4687 21.5961 19.7139 19.6806 20.5504L27.3289 33.7684H19.0944L19.0999 33.7657ZM7.1611 7.76569V15.1472H14.5176C15.7203 15.1472 16.7276 14.7929 17.5395 14.0872C18.3514 13.3815 18.7587 12.5123 18.7587 11.4823C18.7587 10.3897 18.3596 9.49593 17.5642 8.80656C16.7689 8.11446 15.7533 7.76841 14.5204 7.76841H7.16386L7.1611 7.76569Z" fill="white"/>
<path d="M53.301 19.6812C53.4633 21.128 53.4303 22.6566 53.2046 24.2643H36.5899C37.3687 26.9645 39.1219 28.316 41.852 28.316C43.118 28.316 44.2464 28.019 45.2371 27.4223C46.2279 26.8283 46.982 26.0463 47.5022 25.0817L52.8138 28.0735C51.8065 30.0027 50.2736 31.5558 48.2095 32.7275C46.1454 33.9019 43.9464 34.4877 41.6071 34.4877C38.1311 34.4877 35.2578 33.2752 32.9846 30.8446C30.7113 28.4169 29.5746 25.3705 29.5746 21.703C29.5746 18.0354 30.7113 14.9509 32.9846 12.5367C35.2578 10.1253 38.1806 8.91821 41.7557 8.91821C44.8739 8.91821 47.4884 9.88279 49.5993 11.8119C51.7102 13.7411 52.9432 16.3624 53.301 19.6757V19.6812ZM41.5107 15.098C38.8797 15.098 37.2394 16.4822 36.5899 19.2452H46.3325C46.1701 17.9918 45.65 16.9863 44.7748 16.2316C43.8969 15.4768 42.8098 15.098 41.5107 15.098Z" fill="white"/>
<path d="M74.4457 9.64844H81.8022L67.7222 43.4141H60.2198L64.849 32.4168L54.6165 9.64844H62.2647L68.5506 23.6866L74.4457 9.64844Z" fill="white"/>
<path d="M94.663 8.92362C97.6519 8.92362 100.176 9.8882 102.24 11.8174C104.301 13.7465 105.333 16.2233 105.333 19.2451V33.7656H98.5133V31.3051C96.3033 33.395 93.7218 34.455 90.766 34.4877C88.6551 34.5204 86.8607 33.861 85.3828 32.5095C83.9049 31.158 83.1673 29.3732 83.1673 27.1552C83.1673 22.91 85.9442 20.2424 91.4981 19.1471L98.3179 17.8446C98.0564 16.9454 97.5611 16.2288 96.8317 15.6975C96.0997 15.1661 95.2492 14.9018 94.275 14.9018C92.1311 14.9018 90.2458 15.9618 88.6248 18.0844L83.704 14.4195C84.9067 12.7792 86.4974 11.4522 88.479 10.4413C90.4605 9.42771 92.5219 8.9209 94.6658 8.9209L94.663 8.92362ZM92.7641 28.8446C94.2585 28.8446 95.5905 28.3133 96.7602 27.2533C97.9298 26.1934 98.5133 24.9699 98.5133 23.5885V22.9618L92.7641 24.1198C90.9119 24.5067 89.9871 25.3569 89.9871 26.6757C89.9871 27.286 90.2321 27.801 90.7192 28.2206C91.2063 28.6375 91.8889 28.8473 92.7641 28.8473V28.8446Z" fill="white"/>
<path d="M128.184 0H135.249V33.7657H128.184V31.2098C126.461 33.3978 124.108 34.4905 121.12 34.4905C117.968 34.4905 115.329 33.2698 113.202 30.8256C111.074 28.3815 110.026 25.3433 110.059 21.7084C110.092 18.0736 111.179 15.0354 113.323 12.5913C115.467 10.1471 118.098 8.92643 121.216 8.92643C124.073 8.92643 126.395 9.97275 128.184 12.0627V0ZM122.581 27.7357C124.108 27.7684 125.424 27.2207 126.528 26.0954C127.631 24.97 128.184 23.5068 128.184 21.7057C128.184 19.9046 127.648 18.4087 126.577 17.3161C125.506 16.2234 124.221 15.6757 122.73 15.6757C121.238 15.6757 119.911 16.248 118.857 17.3896C117.8 18.5313 117.275 19.9864 117.275 21.7548C117.275 23.5232 117.787 24.9155 118.81 26.0245C119.834 27.1335 121.092 27.7057 122.586 27.7384L122.581 27.7357Z" fill="white"/>
<path d="M151.814 8.92362C154.803 8.92362 157.327 9.8882 159.391 11.8174C161.452 13.7465 162.484 16.2233 162.484 19.2451V33.7656H155.665V31.3051C153.455 33.395 150.873 34.455 147.917 34.4877C145.806 34.5204 144.012 33.861 142.534 32.5095C141.056 31.158 140.319 29.3732 140.319 27.1552C140.319 22.91 143.095 20.2424 148.649 19.1471L155.469 17.8446C155.208 16.9454 154.712 16.2288 153.983 15.6975C153.254 15.1661 152.4 14.9018 151.426 14.9018C149.282 14.9018 147.397 15.9618 145.776 18.0844L140.855 14.4195C142.058 12.7792 143.649 11.4522 145.63 10.4413C147.612 9.42771 149.673 8.9209 151.817 8.9209L151.814 8.92362ZM149.915 28.8446C151.41 28.8446 152.742 28.3133 153.911 27.2533C155.081 26.1934 155.665 24.9699 155.665 23.5885V22.9618L149.915 24.1198C148.063 24.5067 147.138 25.3569 147.138 26.6757C147.138 27.286 147.383 27.801 147.87 28.2206C148.358 28.6375 149.04 28.8473 149.915 28.8473V28.8446Z" fill="white"/>
<path d="M84.5489 51.4851L83.426 48.7876H78.0236L76.9172 51.4851H75.0347L79.7079 40.3652H81.7059L86.4286 51.4851H84.5462H84.5489ZM78.7033 47.1527H82.749L80.7179 42.2481L78.7033 47.1527Z" fill="white"/>
<path d="M93.4356 48.902L94.8227 49.7031C94.4154 50.3025 93.8925 50.7766 93.254 51.1254C92.6155 51.4742 91.9274 51.6486 91.1898 51.6486C90.0009 51.6486 89.0129 51.2371 88.2258 50.4142C87.4387 49.5913 87.0451 48.5804 87.0451 47.3815C87.0451 46.1826 87.4387 45.1717 88.2258 44.3488C89.0129 43.5259 90.0009 43.1145 91.1898 43.1145C91.9274 43.1145 92.6155 43.2889 93.254 43.6377C93.8925 43.9864 94.4154 44.4606 94.8227 45.06L93.4356 45.8611C93.1824 45.4905 92.8577 45.199 92.4613 44.9864C92.065 44.7739 91.6467 44.6676 91.2064 44.6676C90.4798 44.6676 89.8798 44.9292 89.4064 45.4524C88.9331 45.9755 88.6964 46.6186 88.6964 47.3815C88.6964 48.1445 88.9331 48.7875 89.4064 49.3107C89.8798 49.8338 90.4798 50.0954 91.2064 50.0954C91.6467 50.0954 92.065 49.9892 92.4613 49.7766C92.8577 49.5641 93.1824 49.2725 93.4356 48.902Z" fill="white"/>
<path d="M102.24 48.902L103.627 49.7031C103.22 50.3025 102.697 50.7766 102.058 51.1254C101.42 51.4742 100.732 51.6486 99.994 51.6486C98.8051 51.6486 97.817 51.2371 97.0299 50.4142C96.2428 49.5913 95.8492 48.5804 95.8492 47.3815C95.8492 46.1826 96.2428 45.1717 97.0299 44.3488C97.817 43.5259 98.8051 43.1145 99.994 43.1145C100.732 43.1145 101.42 43.2889 102.058 43.6377C102.697 43.9864 103.22 44.4606 103.627 45.06L102.24 45.8611C101.987 45.4905 101.662 45.199 101.265 44.9864C100.869 44.7739 100.451 44.6676 100.011 44.6676C99.2839 44.6676 98.684 44.9292 98.2106 45.4524C97.7372 45.9755 97.5005 46.6186 97.5005 47.3815C97.5005 48.1445 97.7372 48.7875 98.2106 49.3107C98.684 49.8338 99.2839 50.0954 100.011 50.0954C100.451 50.0954 100.869 49.9892 101.265 49.7766C101.662 49.5641 101.987 49.2725 102.24 48.902Z" fill="white"/>
<path d="M108.911 51.6486C107.711 51.6486 106.693 51.2344 105.856 50.4061C105.019 49.5777 104.601 48.575 104.601 47.3979C104.601 46.2208 105.019 45.2181 105.856 44.3897C106.693 43.5614 107.711 43.1472 108.911 43.1472C110.111 43.1472 111.096 43.5614 111.933 44.3897C112.769 45.2181 113.188 46.2208 113.188 47.3979C113.188 48.575 112.769 49.5777 111.933 50.4061C111.096 51.2344 110.089 51.6486 108.911 51.6486ZM108.911 50.0954C109.638 50.0954 110.257 49.8366 110.769 49.3189C111.281 48.8012 111.536 48.1608 111.536 47.3979C111.536 46.635 111.281 45.9946 110.769 45.4769C110.257 44.9592 109.638 44.7003 108.911 44.7003C108.184 44.7003 107.532 44.9592 107.02 45.4769C106.508 45.9946 106.252 46.635 106.252 47.3979C106.252 48.1608 106.508 48.8012 107.02 49.3189C107.532 49.8366 108.162 50.0954 108.911 50.0954Z" fill="white"/>
<path d="M120.572 43.3105H122.223V51.4877H120.572V50.2452C120.308 50.6702 119.942 51.0135 119.474 51.2751C119.006 51.5367 118.491 51.6675 117.93 51.6675C117.016 51.6675 116.265 51.3323 115.676 50.662C115.087 49.9917 114.792 49.1171 114.792 48.0381V43.3133H116.444V47.6947C116.444 48.4686 116.625 49.0708 116.989 49.5013C117.352 49.9318 117.82 50.1471 118.392 50.1471C119.042 50.1471 119.567 49.8937 119.969 49.3868C120.371 48.88 120.572 48.2888 120.572 47.613V43.3133V43.3105Z" fill="white"/>
<path d="M129.013 43.1309C129.926 43.1309 130.678 43.466 131.267 44.1363C131.856 44.8066 132.15 45.6813 132.15 46.7603V51.4851H130.499V47.1036C130.499 46.3298 130.317 45.7276 129.954 45.2971C129.591 44.8666 129.123 44.6513 128.55 44.6513C127.901 44.6513 127.375 44.9047 126.973 45.4116C126.572 45.9184 126.371 46.5096 126.371 47.1854V51.4851H124.719V43.308H126.371V44.5505C126.635 44.1254 127.001 43.7821 127.469 43.5205C127.937 43.259 128.451 43.1282 129.013 43.1282V43.1309Z" fill="white"/>
<path d="M138.656 44.782H136.675V48.951C136.675 49.6049 136.977 49.9319 137.583 49.9319H138.656V51.485H137.5C136.697 51.485 136.083 51.2752 135.659 50.8556C135.235 50.436 135.023 49.8283 135.023 49.0327V44.782H133.537V43.3106H135.023V41.1853L136.675 40.6948V43.3106H138.656V44.782Z" fill="white"/>
<path d="M141.813 41.9183C141.516 41.9183 141.26 41.8148 141.045 41.6077C140.83 41.4006 140.723 41.1499 140.723 40.8556C140.723 40.5614 140.83 40.3107 141.045 40.1036C141.26 39.8965 141.516 39.793 141.813 39.793C142.11 39.793 142.35 39.8965 142.564 40.1036C142.779 40.3107 142.886 40.5614 142.886 40.8556C142.886 41.1499 142.779 41.4006 142.564 41.6077C142.35 41.8148 142.099 41.9183 141.813 41.9183ZM140.987 43.308H142.639V51.4851H140.987V43.308Z" fill="white"/>
<path d="M149.723 43.1309C150.636 43.1309 151.388 43.466 151.977 44.1363C152.566 44.8066 152.86 45.6813 152.86 46.7603V51.4851H151.209V47.1036C151.209 46.3298 151.027 45.7276 150.664 45.2971C150.301 44.8666 149.833 44.6513 149.26 44.6513C148.611 44.6513 148.085 44.9047 147.683 45.4116C147.281 45.9184 147.081 46.5096 147.081 47.1854V51.4851H145.429V43.308H147.081V44.5505C147.345 44.1254 147.711 43.7821 148.179 43.5205C148.647 43.259 149.161 43.1282 149.723 43.1282V43.1309Z" fill="white"/>
<path d="M160.921 43.3107H162.572V50.9646C162.561 52.1744 162.173 53.1499 161.408 53.891C160.643 54.6322 159.639 55.0028 158.395 55.0028C157.778 55.0028 157.164 54.8665 156.554 54.594C155.943 54.3216 155.411 53.9564 154.96 53.4987L156.182 52.4197C156.853 53.1063 157.591 53.4496 158.395 53.4496C159.198 53.4496 159.807 53.2235 160.252 52.7712C160.698 52.3188 160.921 51.7058 160.921 50.9319V50.2126C160.415 51.1717 159.567 51.6513 158.378 51.6513C157.31 51.6513 156.421 51.2562 155.711 50.466C155.001 49.6758 154.652 48.654 154.663 47.4006C154.674 46.169 155.032 45.1526 155.736 44.3515C156.441 43.5504 157.327 43.1499 158.395 43.1499C159.54 43.1499 160.382 43.5968 160.921 44.4905V43.3134V43.3107ZM156.958 49.3352C157.387 49.842 157.954 50.0954 158.659 50.0954C159.363 50.0954 159.93 49.842 160.36 49.3352C160.789 48.8284 161.004 48.1826 161.004 47.3979C161.004 46.6131 160.789 45.9673 160.36 45.4605C159.93 44.9537 159.363 44.7003 158.659 44.7003C157.954 44.7003 157.387 44.9537 156.958 45.4605C156.529 45.9673 156.314 46.6131 156.314 47.3979C156.314 48.1826 156.529 48.8284 156.958 49.3352Z" fill="white"/>
</g>
<defs>
<clipPath id="clip0_10_991">
<rect width="216" height="55" fill="white"/>
</clipPath>
</defs>
</svg>
