<?xml version="1.0" encoding="UTF-8"?><svg id="Layer_1" xmlns="http://www.w3.org/2000/svg" xmlns:xlink="http://www.w3.org/1999/xlink" viewBox="0 0 1119 691"><defs><style>.cls-1{fill:#fff;}.cls-2{fill:#54b541;}.cls-3{fill:#c7dc49;}.cls-4{clip-path:url(#clippath);}.cls-5{fill:#4eb3f8;}.cls-6{fill:none;}.cls-7{fill:#22425c;}</style><clipPath id="clippath"><rect class="cls-6" x="106.9" y="230.26" width="905.19" height="230.49"/></clipPath></defs><rect class="cls-7" width="1119" height="691" rx="172.93" ry="172.93"/><g class="cls-4"><g><path class="cls-5" d="M831.15,445.55c49.97,0,90.47-40.1,90.47-89.57h-90.47v89.57Z"/><path class="cls-2" d="M831.15,266.41c0,49.47,40.51,89.57,90.47,89.57v-89.57h-90.47Z"/><path class="cls-3" d="M1012.1,266.41c-49.96,0-90.47,40.1-90.47,89.57h90.47v-89.57Z"/><path class="cls-1" d="M186.94,371.76l-29.61-50.94h-20.41v50.94h-30.02V234.3h60.84c13.61,0,24.98,4.11,34.09,12.33,9.12,8.22,13.68,18.46,13.68,30.73,0,8.62-2.35,16.41-7.05,23.35-4.69,6.94-11.06,12.16-19.09,15.67l32.05,55.39h-34.49Zm-50.03-108.97v30.93h30.83c5.04,0,9.26-1.48,12.66-4.44,3.4-2.96,5.11-6.6,5.11-10.92,0-4.58-1.67-8.32-5.01-11.21-3.33-2.9-7.59-4.35-12.76-4.35h-30.84Z"/><path class="cls-1" d="M330.27,312.73c.68,6.06,.54,12.47-.4,19.21h-69.63c3.26,11.32,10.61,16.98,22.05,16.98,5.31,0,10.03-1.24,14.19-3.75,4.15-2.49,7.31-5.77,9.49-9.81l22.26,12.54c-4.22,8.08-10.65,14.59-19.3,19.5-8.65,4.92-17.87,7.38-27.67,7.38-14.57,0-26.61-5.08-36.13-15.27-9.53-10.17-14.29-22.94-14.29-38.31s4.76-28.3,14.29-38.41c9.53-10.11,21.77-15.16,36.76-15.16,13.07,0,24.02,4.04,32.87,12.13,8.85,8.08,14.01,19.07,15.51,32.95v.02Zm-49.41-19.21c-11.03,0-17.9,5.8-20.62,17.38h40.83c-.68-5.25-2.86-9.47-6.53-12.63-3.68-3.16-8.23-4.75-13.68-4.75Z"/><path class="cls-1" d="M418.88,270.69h30.83l-59.01,141.5h-31.44l19.4-46.09-42.88-95.42h32.05l26.34,58.83,24.7-58.83Z"/><path class="cls-1" d="M503.61,267.65c12.53,0,23.1,4.04,31.75,12.13,8.64,8.08,12.96,18.46,12.96,31.13v60.85h-28.58v-10.31c-9.26,8.76-20.08,13.2-32.47,13.34-8.85,.14-16.37-2.63-22.56-8.29-6.19-5.66-9.28-13.14-9.28-22.44,0-17.79,11.64-28.97,34.91-33.56l28.58-5.46c-1.1-3.77-3.17-6.77-6.23-9-3.07-2.23-6.63-3.33-10.71-3.33-8.98,0-16.89,4.44-23.68,13.34l-20.62-15.36c5.04-6.87,11.71-12.44,20.01-16.67,8.3-4.25,16.94-6.37,25.93-6.37h-.01Zm-7.96,83.49c6.26,0,11.84-2.23,16.75-6.67,4.9-4.44,7.35-9.57,7.35-15.36v-2.63l-24.09,4.85c-7.76,1.62-11.64,5.18-11.64,10.71,0,2.56,1.03,4.72,3.07,6.47,2.04,1.75,4.9,2.63,8.57,2.63h0Z"/><path class="cls-1" d="M644.09,230.26h29.61v141.5h-29.61v-10.71c-7.22,9.17-17.08,13.75-29.6,13.75-13.21,0-24.27-5.12-33.18-15.36-8.92-10.24-13.31-22.97-13.17-38.21,.14-15.23,4.69-27.96,13.68-38.21,8.98-10.24,20.01-15.36,33.08-15.36,11.97,0,21.7,4.38,29.2,13.14v-50.55Zm-23.48,116.23c6.4,.14,11.91-2.16,16.54-6.87,4.62-4.72,6.94-10.85,6.94-18.4s-2.25-13.82-6.73-18.4c-4.49-4.58-9.87-6.87-16.12-6.87s-11.81,2.4-16.23,7.18c-4.43,4.78-6.63,10.88-6.63,18.29s2.15,13.25,6.43,17.89c4.29,4.65,9.56,7.05,15.82,7.18h-.02Z"/><path class="cls-1" d="M743.11,267.65c12.53,0,23.1,4.04,31.75,12.13,8.64,8.08,12.96,18.46,12.96,31.13v60.85h-28.58v-10.31c-9.26,8.76-20.08,13.2-32.47,13.34-8.85,.14-16.36-2.63-22.56-8.29-6.19-5.66-9.28-13.14-9.28-22.44,0-17.79,11.63-28.97,34.91-33.56l28.58-5.46c-1.09-3.77-3.17-6.77-6.23-9-3.06-2.23-6.63-3.33-10.72-3.33-8.98,0-16.88,4.44-23.68,13.34l-20.62-15.36c5.04-6.87,11.71-12.44,20.01-16.67,8.31-4.25,16.94-6.37,25.93-6.37h-.01Zm-7.96,83.49c6.27,0,11.85-2.23,16.75-6.67,4.9-4.44,7.35-9.57,7.35-15.36v-2.63l-24.1,4.85c-7.76,1.62-11.64,5.18-11.64,10.71,0,2.56,1.03,4.72,3.07,6.47,2.05,1.75,4.9,2.63,8.57,2.63h0Z"/><path class="cls-1" d="M461.22,446.01l-4.71-11.3h-22.64l-4.64,11.3h-7.89l19.58-46.6h8.37l19.79,46.6h-7.88Zm-24.5-18.16h16.95l-8.51-20.55-8.44,20.55Z"/><path class="cls-1" d="M498.46,435.19l5.81,3.36c-1.71,2.51-3.9,4.5-6.57,5.96-2.68,1.46-5.56,2.19-8.65,2.19-4.98,0-9.12-1.72-12.42-5.17s-4.95-7.68-4.95-12.71,1.65-9.26,4.95-12.71,7.44-5.17,12.42-5.17c3.09,0,5.97,.73,8.65,2.19,2.68,1.46,4.87,3.45,6.57,5.96l-5.81,3.36c-1.06-1.55-2.42-2.77-4.08-3.67-1.66-.89-3.41-1.34-5.26-1.34-3.04,0-5.56,1.1-7.54,3.29-1.98,2.19-2.98,4.89-2.98,8.08s.99,5.89,2.98,8.08c1.98,2.19,4.5,3.29,7.54,3.29,1.85,0,3.6-.45,5.26-1.34,1.66-.89,3.02-2.11,4.08-3.67Z"/><path class="cls-1" d="M535.36,435.19l5.81,3.36c-1.71,2.51-3.9,4.5-6.58,5.96-2.67,1.46-5.56,2.19-8.65,2.19-4.98,0-9.12-1.72-12.42-5.17s-4.95-7.68-4.95-12.71,1.65-9.26,4.95-12.71,7.44-5.17,12.42-5.17c3.09,0,5.98,.73,8.65,2.19,2.68,1.46,4.87,3.45,6.58,5.96l-5.81,3.36c-1.06-1.55-2.42-2.77-4.09-3.67-1.66-.89-3.41-1.34-5.26-1.34-3.05,0-5.56,1.1-7.54,3.29-1.98,2.19-2.98,4.89-2.98,8.08s.99,5.89,2.98,8.08c1.98,2.19,4.5,3.29,7.54,3.29,1.84,0,3.6-.45,5.26-1.34,1.66-.89,3.03-2.11,4.09-3.67Z"/><path class="cls-1" d="M563.32,446.7c-5.03,0-9.3-1.74-12.8-5.21-3.51-3.47-5.26-7.67-5.26-12.61s1.75-9.13,5.26-12.61c3.51-3.47,7.77-5.21,12.8-5.21s9.16,1.74,12.66,5.21c3.5,3.47,5.26,7.67,5.26,12.61s-1.76,9.13-5.26,12.61c-3.51,3.47-7.73,5.21-12.66,5.21Zm0-6.51c3.05,0,5.64-1.08,7.79-3.25,2.15-2.17,3.21-4.85,3.21-8.05s-1.07-5.88-3.21-8.05c-2.15-2.17-4.74-3.25-7.79-3.25s-5.78,1.08-7.92,3.25c-2.15,2.17-3.22,4.85-3.22,8.05s1.07,5.88,3.22,8.05c2.15,2.17,4.79,3.25,7.92,3.25Z"/><path class="cls-1" d="M612.19,411.76h6.92v34.27h-6.92v-5.21c-1.11,1.78-2.64,3.22-4.6,4.32-1.96,1.1-4.12,1.64-6.47,1.64-3.83,0-6.98-1.4-9.45-4.21-2.47-2.81-3.7-6.47-3.7-11v-19.8h6.92v18.36c0,3.24,.76,5.77,2.28,7.57,1.52,1.8,3.48,2.71,5.88,2.71,2.72,0,4.92-1.06,6.61-3.19,1.68-2.12,2.53-4.6,2.53-7.43v-18.02h0Z"/><path class="cls-1" d="M647.56,411c3.83,0,6.98,1.4,9.45,4.21s3.7,6.47,3.7,11v19.8h-6.92v-18.36c0-3.24-.76-5.77-2.28-7.57-1.52-1.8-3.48-2.71-5.88-2.71-2.72,0-4.92,1.06-6.61,3.19-1.68,2.12-2.52,4.6-2.52,7.43v18.02h-6.92v-34.27h6.92v5.21c1.11-1.78,2.64-3.22,4.6-4.32,1.96-1.1,4.12-1.64,6.47-1.64h0Z"/><path class="cls-1" d="M687.97,417.92h-8.3v17.47c0,2.74,1.27,4.11,3.81,4.11h4.5v6.51h-4.84c-3.37,0-5.94-.88-7.72-2.64-1.78-1.76-2.67-4.31-2.67-7.64v-17.81h-6.23v-6.17h6.23v-8.91l6.92-2.06v10.96h8.3v6.17Z"/><path class="cls-1" d="M701.2,405.92c-1.24,0-2.32-.43-3.22-1.3s-1.35-1.92-1.35-3.15,.45-2.28,1.35-3.15,1.97-1.3,3.22-1.3,2.25,.43,3.15,1.3c.9,.87,1.35,1.92,1.35,3.15s-.45,2.28-1.35,3.15c-.9,.87-1.95,1.3-3.15,1.3Zm-3.46,5.82h6.92v34.27h-6.92v-34.27Z"/><path class="cls-1" d="M734.35,411c3.83,0,6.98,1.4,9.45,4.21,2.47,2.81,3.7,6.47,3.7,11v19.8h-6.92v-18.36c0-3.24-.76-5.77-2.28-7.57-1.52-1.8-3.48-2.71-5.88-2.71-2.72,0-4.92,1.06-6.61,3.19-1.68,2.12-2.52,4.6-2.52,7.43v18.02h-6.92v-34.27h6.92v5.21c1.11-1.78,2.64-3.22,4.6-4.32,1.96-1.1,4.12-1.64,6.47-1.64h0Z"/><path class="cls-1" d="M781.28,411.76h6.92v32.08c-.05,5.07-1.67,9.16-4.88,12.26-3.21,3.11-7.41,4.66-12.63,4.66-2.59,0-5.16-.57-7.72-1.71-2.56-1.14-4.79-2.67-6.68-4.59l5.12-4.52c2.81,2.88,5.9,4.32,9.27,4.32s5.92-.95,7.78-2.84c1.87-1.9,2.8-4.46,2.8-7.71v-3.01c-2.12,4.02-5.67,6.03-10.66,6.03-4.48,0-8.2-1.66-11.18-4.97-2.98-3.31-4.44-7.59-4.39-12.85,.05-5.16,1.55-9.42,4.5-12.78,2.95-3.36,6.67-5.04,11.14-5.04,4.8,0,8.33,1.87,10.59,5.62v-4.93h0Zm-16.61,25.24c1.8,2.12,4.17,3.19,7.13,3.19s5.33-1.06,7.13-3.19c1.8-2.12,2.7-4.83,2.7-8.12s-.9-6-2.7-8.12c-1.8-2.12-4.18-3.19-7.13-3.19s-5.33,1.06-7.13,3.19c-1.8,2.12-2.7,4.83-2.7,8.12s.9,5.99,2.7,8.12Z"/></g></g></svg>