<svg width="203" height="52" viewBox="0 0 203 52" fill="none" xmlns="http://www.w3.org/2000/svg">
<g clip-path="url(#clip0_47_130)">
<path d="M162.42 48.5711C173.625 48.5711 182.709 39.5236 182.709 28.3636H162.42V48.5711Z" fill="#4EB3F8"/>
<path d="M162.42 8.15616C162.42 19.3161 171.504 28.3636 182.709 28.3636V8.15616H162.42Z" fill="#54B541"/>
<path d="M203 8.15616C191.795 8.15616 182.711 17.2037 182.711 28.3636H203V8.15616Z" fill="#C7DC49"/>
<path d="M17.9504 31.9239L11.3108 20.4316H6.7327V31.9239H0V0.911957H13.6439C16.6959 0.911957 19.2463 1.83938 21.2896 3.69422C23.3355 5.54906 24.3572 7.85989 24.3572 10.6267C24.3572 12.5717 23.8296 14.3287 22.7768 15.895C21.7241 17.4613 20.2964 18.6386 18.4962 19.4295L25.6841 31.9265H17.9452L17.9504 31.9239ZM6.73011 7.34208V14.3209H13.6439C14.7742 14.3209 15.7208 13.986 16.4839 13.3188C17.2469 12.6516 17.6297 11.8298 17.6297 10.856C17.6297 9.82293 17.2546 8.97795 16.5071 8.32617C15.7596 7.67183 14.8052 7.34465 13.6464 7.34465H6.7327L6.73011 7.34208Z" fill="#22425C"/>
<path d="M50.093 18.6077C50.2456 19.9756 50.2146 21.4208 50.0025 22.9408H34.3877C35.1197 25.4938 36.7673 26.7715 39.3331 26.7715C40.5229 26.7715 41.5834 26.4907 42.5145 25.9266C43.4457 25.365 44.1544 24.6256 44.6432 23.7136L49.6352 26.5423C48.6885 28.3662 47.2479 29.8346 45.308 30.9424C43.3681 32.0527 41.3015 32.6066 39.1029 32.6066C35.8361 32.6066 33.1358 31.4602 30.9994 29.1622C28.8629 26.8669 27.7947 23.9867 27.7947 20.5192C27.7947 17.0517 28.8629 14.1354 30.9994 11.8529C33.1358 9.57304 35.8827 8.43179 39.2426 8.43179C42.1731 8.43179 44.6303 9.34376 46.6142 11.1677C48.598 12.9916 49.7568 15.4699 50.093 18.6025V18.6077ZM39.0124 14.2745C36.5397 14.2745 34.9981 15.5832 34.3877 18.1955H43.544C43.3914 17.0104 42.9025 16.0598 42.08 15.3462C41.2549 14.6326 40.2332 14.2745 39.0124 14.2745Z" fill="#22425C"/>
<path d="M69.9652 9.12222H76.8789L63.6463 41.0461H56.5955L60.946 30.6487L51.3293 9.12222H58.5173L64.4249 22.3947L69.9652 9.12222Z" fill="#22425C"/>
<path d="M88.9657 8.43696C91.7747 8.43696 94.1465 9.34893 96.0864 11.1729C98.0237 12.9968 98.9937 15.3385 98.9937 18.1955V31.9239H92.5843V29.5976C90.5073 31.5735 88.0811 32.5757 85.3032 32.6066C83.3194 32.6375 81.633 32.0141 80.244 30.7363C78.855 29.4585 78.1619 27.7711 78.1619 25.6741C78.1619 21.6604 80.7717 19.1384 85.9912 18.1028L92.4006 16.8713C92.1549 16.0212 91.6893 15.3437 91.0039 14.8413C90.3159 14.339 89.5167 14.0891 88.601 14.0891C86.5861 14.0891 84.8144 15.0912 83.2909 17.098L78.6662 13.6331C79.7965 12.0822 81.2915 10.8276 83.1538 9.87189C85.0161 8.91355 86.9534 8.43439 88.9683 8.43439L88.9657 8.43696ZM87.181 27.2713C88.5855 27.2713 89.8374 26.769 90.9367 25.7669C92.0359 24.7647 92.5843 23.608 92.5843 22.3019V21.7094L87.181 22.8043C85.4403 23.1701 84.5712 23.9738 84.5712 25.2207C84.5712 25.7978 84.8014 26.2847 85.2593 26.6814C85.7171 27.0756 86.3585 27.2739 87.181 27.2739V27.2713Z" fill="#22425C"/>
<path d="M120.47 0H127.109V31.9239H120.47V29.5075C118.85 31.5761 116.639 32.6092 113.83 32.6092C110.868 32.6092 108.388 31.455 106.389 29.1442C104.389 26.8334 103.404 23.961 103.435 20.5243C103.466 17.0877 104.487 14.2153 106.502 11.9045C108.517 9.59366 110.99 8.43953 113.92 8.43953C116.605 8.43953 118.788 9.42878 120.47 11.4047V0ZM115.203 26.2228C116.639 26.2538 117.875 25.7359 118.912 24.672C119.95 23.608 120.47 22.2246 120.47 20.5218C120.47 18.8189 119.965 17.4046 118.959 16.3716C117.953 15.3385 116.745 14.8207 115.343 14.8207C113.941 14.8207 112.694 15.3617 111.704 16.4411C110.711 17.5205 110.217 18.8962 110.217 20.5681C110.217 22.2401 110.698 23.5565 111.66 24.605C112.622 25.6535 113.804 26.1945 115.209 26.2254L115.203 26.2228Z" fill="#22425C"/>
<path d="M142.677 8.43696C145.486 8.43696 147.858 9.34893 149.798 11.1729C151.735 12.9968 152.705 15.3385 152.705 18.1955V31.9239H146.296V29.5976C144.219 31.5735 141.793 32.5757 139.015 32.6066C137.031 32.6375 135.345 32.0141 133.956 30.7363C132.567 29.4585 131.873 27.7711 131.873 25.6741C131.873 21.6604 134.483 19.1384 139.703 18.1028L146.112 16.8713C145.866 16.0212 145.401 15.3437 144.715 14.8413C144.03 14.339 143.228 14.0891 142.313 14.0891C140.298 14.0891 138.526 15.0912 137.002 17.098L132.378 13.6331C133.508 12.0822 135.003 10.8276 136.865 9.87189C138.728 8.91355 140.665 8.43439 142.68 8.43439L142.677 8.43696ZM140.893 27.2713C142.297 27.2713 143.549 26.769 144.648 25.7669C145.747 24.7647 146.296 23.608 146.296 22.3019V21.7094L140.893 22.8043C139.152 23.1701 138.283 23.9738 138.283 25.2207C138.283 25.7978 138.513 26.2847 138.971 26.6814C139.429 27.0756 140.07 27.2739 140.893 27.2739V27.2713Z" fill="#22425C"/>
<path d="M79.4603 48.6767L78.405 46.1263H73.3277L72.2879 48.6767H70.5187L74.9106 38.1634H76.7884L81.2269 48.6767H79.4577H79.4603ZM73.9666 44.5806H77.7687L75.8599 39.9435L73.9666 44.5806Z" fill="#22425C"/>
<path d="M87.8122 46.2345L89.1158 46.9919C88.733 47.5587 88.2415 48.0069 87.6414 48.3367C87.0414 48.6664 86.3947 48.8313 85.7016 48.8313C84.5842 48.8313 83.6556 48.4423 82.9159 47.6643C82.1761 46.8863 81.8063 45.9306 81.8063 44.797C81.8063 43.6635 82.1761 42.7078 82.9159 41.9298C83.6556 41.1518 84.5842 40.7628 85.7016 40.7628C86.3947 40.7628 87.0414 40.9276 87.6414 41.2574C88.2415 41.5871 88.733 42.0354 89.1158 42.6021L87.8122 43.3595C87.5742 43.0092 87.269 42.7335 86.8965 42.5326C86.5241 42.3316 86.1309 42.2312 85.7171 42.2312C85.0342 42.2312 84.4704 42.4785 84.0255 42.9731C83.5806 43.4677 83.3582 44.0757 83.3582 44.797C83.3582 45.5184 83.5806 46.1263 84.0255 46.621C84.4704 47.1156 85.0342 47.3629 85.7171 47.3629C86.1309 47.3629 86.5241 47.2624 86.8965 47.0615C87.269 46.8606 87.5742 46.5849 87.8122 46.2345Z" fill="#22425C"/>
<path d="M96.0864 46.2345L97.39 46.9919C97.0072 47.5587 96.5158 48.0069 95.9157 48.3367C95.3156 48.6664 94.669 48.8313 93.9758 48.8313C92.8584 48.8313 91.9299 48.4423 91.1901 47.6643C90.4504 46.8863 90.0805 45.9306 90.0805 44.797C90.0805 43.6635 90.4504 42.7078 91.1901 41.9298C91.9299 41.1518 92.8584 40.7628 93.9758 40.7628C94.669 40.7628 95.3156 40.9276 95.9157 41.2574C96.5158 41.5871 97.0072 42.0354 97.39 42.6021L96.0864 43.3595C95.8484 43.0092 95.5432 42.7335 95.1708 42.5326C94.7983 42.3316 94.4052 42.2312 93.9913 42.2312C93.3085 42.2312 92.7446 42.4785 92.2997 42.9731C91.8549 43.4677 91.6324 44.0757 91.6324 44.797C91.6324 45.5184 91.8549 46.1263 92.2997 46.621C92.7446 47.1156 93.3085 47.3629 93.9913 47.3629C94.4052 47.3629 94.7983 47.2624 95.1708 47.0615C95.5432 46.8606 95.8484 46.5849 96.0864 46.2345Z" fill="#22425C"/>
<path d="M102.356 48.8313C101.228 48.8313 100.271 48.4397 99.4851 47.6566C98.6988 46.8734 98.3057 45.9254 98.3057 44.8125C98.3057 43.6996 98.6988 42.7516 99.4851 41.9684C100.271 41.1852 101.228 40.7937 102.356 40.7937C103.484 40.7937 104.41 41.1852 105.196 41.9684C105.982 42.7516 106.376 43.6996 106.376 44.8125C106.376 45.9254 105.982 46.8734 105.196 47.6566C104.41 48.4397 103.463 48.8313 102.356 48.8313ZM102.356 47.3629C103.039 47.3629 103.621 47.1182 104.102 46.6287C104.583 46.1392 104.824 45.5338 104.824 44.8125C104.824 44.0912 104.583 43.4858 104.102 42.9963C103.621 42.5068 103.039 42.2621 102.356 42.2621C101.673 42.2621 101.06 42.5068 100.579 42.9963C100.098 43.4858 99.8576 44.0912 99.8576 44.8125C99.8576 45.5338 100.098 46.1392 100.579 46.6287C101.06 47.1182 101.653 47.3629 102.356 47.3629Z" fill="#22425C"/>
<path d="M113.315 40.9482H114.867V48.6793H113.315V47.5046C113.067 47.9065 112.723 48.2311 112.283 48.4784C111.843 48.7257 111.36 48.8494 110.832 48.8494C109.973 48.8494 109.267 48.5325 108.714 47.8987C108.16 47.265 107.884 46.4381 107.884 45.4179V40.9508H109.435V45.0933C109.435 45.8249 109.606 46.3943 109.948 46.8013C110.289 47.2083 110.729 47.4119 111.267 47.4119C111.877 47.4119 112.371 47.1723 112.749 46.6931C113.126 46.2139 113.315 45.6549 113.315 45.016V40.9508V40.9482Z" fill="#22425C"/>
<path d="M121.248 40.7782C122.107 40.7782 122.813 41.0951 123.366 41.7288C123.92 42.3626 124.197 43.1895 124.197 44.2097V48.6767H122.645V44.5343C122.645 43.8026 122.474 43.2333 122.133 42.8263C121.791 42.4192 121.351 42.2157 120.813 42.2157C120.203 42.2157 119.709 42.4553 119.331 42.9345C118.954 43.4136 118.765 43.9727 118.765 44.6116V48.6767H117.213V40.9457H118.765V42.1204C119.013 41.7185 119.357 41.3939 119.797 41.1466C120.237 40.8993 120.72 40.7756 121.248 40.7756V40.7782Z" fill="#22425C"/>
<path d="M130.311 42.3394H128.449V46.2809C128.449 46.8992 128.733 47.2083 129.302 47.2083H130.311V48.6767H129.225C128.47 48.6767 127.893 48.4784 127.494 48.0816C127.096 47.6849 126.897 47.1104 126.897 46.3582V42.3394H125.5V40.9482H126.897V38.9388L128.449 38.4751V40.9482H130.311V42.3394Z" fill="#22425C"/>
<path d="M133.278 39.6318C132.999 39.6318 132.758 39.5339 132.556 39.3381C132.355 39.1423 132.254 38.9053 132.254 38.6271C132.254 38.3489 132.355 38.1118 132.556 37.9161C132.758 37.7203 132.999 37.6224 133.278 37.6224C133.557 37.6224 133.782 37.7203 133.984 37.9161C134.186 38.1118 134.287 38.3489 134.287 38.6271C134.287 38.9053 134.186 39.1423 133.984 39.3381C133.782 39.5339 133.547 39.6318 133.278 39.6318ZM132.502 40.9456H134.054V48.6767H132.502V40.9456Z" fill="#22425C"/>
<path d="M140.712 40.7782C141.57 40.7782 142.276 41.0951 142.83 41.7288C143.383 42.3626 143.66 43.1895 143.66 44.2097V48.6767H142.108V44.5343C142.108 43.8026 141.938 43.2333 141.596 42.8263C141.255 42.4192 140.815 42.2157 140.277 42.2157C139.667 42.2157 139.173 42.4553 138.795 42.9345C138.417 43.4136 138.228 43.9727 138.228 44.6116V48.6767H136.677V40.9457H138.228V42.1204C138.477 41.7185 138.821 41.3939 139.26 41.1466C139.7 40.8993 140.184 40.7756 140.712 40.7756V40.7782Z" fill="#22425C"/>
<path d="M151.236 40.9482H152.788V48.1847C152.778 49.3285 152.413 50.2508 151.694 50.9515C150.975 51.6522 150.031 52.0026 148.862 52.0026C148.282 52.0026 147.706 51.8738 147.131 51.6161C146.557 51.3585 146.058 51.0133 145.634 50.5805L146.782 49.5604C147.413 50.2096 148.106 50.5342 148.862 50.5342C149.617 50.5342 150.189 50.3203 150.608 49.8927C151.027 49.465 151.236 48.8854 151.236 48.1538V47.4737C150.76 48.3805 149.964 48.8339 148.846 48.8339C147.843 48.8339 147.007 48.4603 146.34 47.7133C145.673 46.9662 145.344 46.0001 145.354 44.8151C145.365 43.6506 145.701 42.6897 146.363 41.9323C147.025 41.1749 147.858 40.7962 148.862 40.7962C149.938 40.7962 150.729 41.2187 151.236 42.0637V40.9508V40.9482ZM147.512 46.6441C147.915 47.1233 148.448 47.3629 149.11 47.3629C149.772 47.3629 150.305 47.1233 150.708 46.6441C151.112 46.165 151.314 45.5544 151.314 44.8125C151.314 44.0705 151.112 43.46 150.708 42.9808C150.305 42.5017 149.772 42.2621 149.11 42.2621C148.448 42.2621 147.915 42.5017 147.512 42.9808C147.108 43.46 146.906 44.0705 146.906 44.8125C146.906 45.5544 147.108 46.165 147.512 46.6441Z" fill="#22425C"/>
</g>
<defs>
<clipPath id="clip0_47_130">
<rect width="203" height="52" fill="white"/>
</clipPath>
</defs>
</svg>
